v 0.200000 0.000000 0.000000
v 0.200000 1.000000 0.000000
v 0.141421 0.000000 0.141421
v 0.141421 1.000000 0.141421
v 0.000000 0.000000 0.200000
v 0.000000 1.000000 0.200000
v -0.141421 0.000000 0.141421
v -0.141421 1.000000 0.141421
v -0.200000 0.000000 0.000000
v -0.200000 1.000000 0.000000
v -0.141421 0.000000 -0.141421
v -0.141421 1.000000 -0.141421
v -0.000000 0.000000 -0.200000
v -0.000000 1.000000 -0.200000
v 0.141421 0.000000 -0.141421
v 0.141421 1.000000 -0.141421
vn 0.200000 0.0 0.000000
vn 0.141421 0.0 0.141421
vn 0.000000 0.0 0.200000
vn -0.141421 0.0 0.141421
vn -0.200000 0.0 0.000000
vn -0.141421 0.0 -0.141421
vn -0.000000 0.0 -0.200000
vn 0.141421 0.0 -0.141421
f 1/1/1 2/1/1 4/1/2 3/1/2
f 3/1/2 4/1/2 6/1/3 5/1/3
f 5/1/3 6/1/3 8/1/4 7/1/4
f 7/1/4 8/1/4 10/1/5 9/1/5
f 9/1/5 10/1/5 12/1/6 11/1/6
f 11/1/6 12/1/6 14/1/7 13/1/7
f 13/1/7 14/1/7 16/1/8 15/1/8
f 15/1/8 16/1/8 2/1/1 1/1/1
